<svg width="15" height="15" viewBox="0 0 15 15" fill="none" xmlns="http://www.w3.org/2000/svg">
<rect width="15" height="15" rx="7.5" fill="#05445E"/>
<path d="M6.875 6.875V4.375H8.125V6.875H10.625V8.125H8.125V10.625H6.875V8.125H4.375V6.875H6.875ZM7.5 13.75C4.04822 13.75 1.25 10.9517 1.25 7.5C1.25 4.04822 4.04822 1.25 7.5 1.25C10.9517 1.25 13.75 4.04822 13.75 7.5C13.75 10.9517 10.9517 13.75 7.5 13.75ZM7.5 12.5C10.2614 12.5 12.5 10.2614 12.5 7.5C12.5 4.73857 10.2614 2.5 7.5 2.5C4.73857 2.5 2.5 4.73857 2.5 7.5C2.5 10.2614 4.73857 12.5 7.5 12.5Z" fill="#D4F1F4"/>
</svg>
