<svg xmlns="http://www.w3.org/2000/svg" width="70" height="89" viewBox="0 0 70 89" fill="none">
  <g filter="url(#filter0_d_54_230)">
    <path d="M23.8233 46.1646L31.3541 50.5125L16.0615 77L11.6722 67.2109L23.8233 46.1646Z" fill="#CE4444"/>
    <path d="M23.8233 46.1646L16.2926 41.8167L0.999997 68.3042L11.6722 67.2109L23.8233 46.1646Z" fill="#983535"/>
    <path d="M34.5671 46.1646L27.0363 50.5125L42.3289 77L46.7182 67.2109L34.5671 46.1646Z" fill="#983535"/>
    <path d="M34.5671 46.1646L42.0978 41.8167L57.3904 68.3042L46.7182 67.2109L34.5671 46.1646Z" fill="#CE4444"/>
    <circle cx="28.9642" cy="27.9269" r="26.4269" fill="url(#paint0_linear_54_230)" stroke="#765C00"/>
    <circle cx="28.9643" cy="27.9269" r="20.2383" fill="#A88300"/>
    <mask id="mask0_54_230" style="mask-type:alpha" maskUnits="userSpaceOnUse" x="9" y="9" width="42" height="42">
      <circle cx="30.0445" cy="30.0875" r="20.2854" fill="#C28B37"/>
    </mask>
    <g mask="url(#mask0_54_230)">
      <circle cx="28.9642" cy="27.9269" r="20.2854" fill="#C09525"/>
    </g>
    <path d="M29.0737 13.8148L33.4495 22.5665L42.2012 23.6605L36.1917 30.3993L37.8254 40.0699L29.0737 35.694L20.322 40.0699L21.9702 30.3993L15.9461 23.6605L24.6978 22.5665L29.0737 13.8148Z" fill="url(#paint1_linear_54_230)"/>
  </g>
  <defs>
    <filter id="filter0_d_54_230" x="0.216502" y="0.216502" width="68.9263" height="88.5359" filterUnits="userSpaceOnUse" color-interpolation-filters="sRGB">
      <feFlood flood-opacity="0" result="BackgroundImageFix"/>
      <feColorMatrix in="SourceAlpha" type="matrix" values="0 0 0 0 0 0 0 0 0 0 0 0 0 0 0 0 0 0 127 0" result="hardAlpha"/>
      <feOffset dx="5.48449" dy="5.48449"/>
      <feGaussianBlur stdDeviation="3.13399"/>
      <feComposite in2="hardAlpha" operator="out"/>
      <feColorMatrix type="matrix" values="0 0 0 0 0 0 0 0 0 0 0 0 0 0 0 0 0 0 0.3 0"/>
      <feBlend mode="normal" in2="BackgroundImageFix" result="effect1_dropShadow_54_230"/>
      <feBlend mode="normal" in="SourceGraphic" in2="effect1_dropShadow_54_230" result="shape"/>
    </filter>
    <linearGradient id="paint0_linear_54_230" x1="28.9642" y1="2" x2="28.9642" y2="53.8538" gradientUnits="userSpaceOnUse">
      <stop stop-color="#FFC600"/>
      <stop offset="1" stop-color="#FFDE69"/>
    </linearGradient>
    <linearGradient id="paint1_linear_54_230" x1="29.0737" y1="13.8148" x2="29.0737" y2="40.0699" gradientUnits="userSpaceOnUse">
      <stop stop-color="#FFFCDD"/>
      <stop offset="1" stop-color="#FFE896"/>
    </linearGradient>
  </defs>
</svg>