<!DOCTYPE svg PUBLIC "-//W3C//DTD SVG 1.1//EN" "http://www.w3.org/Graphics/SVG/1.1/DTD/svg11.dtd">
<!-- Uploaded to: SVG Repo, www.svgrepo.com, Transformed by: SVG Repo Mixer Tools -->
<svg version="1.1" id="Uploaded to svgrepo.com" xmlns="http://www.w3.org/2000/svg" xmlns:xlink="http://www.w3.org/1999/xlink" width="800px" height="800px" viewBox="0 0 32 32" xml:space="preserve" fill="#D4F1F4">

<g id="SVGRepo_bgCarrier" stroke-width="0"/>

<g id="SVGRepo_tracerCarrier" stroke-linecap="round" stroke-linejoin="round"/>

<g id="SVGRepo_iconCarrier"> <style type="text/css"> .sharpcorners_een{fill:#05445E;} .st0{fill:#05445E;} </style> <path class="sharpcorners_een" d="M19,2C12.925,2,8,6.925,8,13c0,2.677,0.958,5.13,2.549,7.037l-2.256,2.256l-0.707-0.707l-6,6 l2.828,2.828l6-6l-0.707-0.707l2.256-2.256C13.87,23.042,16.323,24,19,24c6.075,0,11-4.925,11-11S25.075,2,19,2z M19,22 c-4.963,0-9-4.037-9-9c0-4.963,4.037-9,9-9c4.963,0,9,4.037,9,9C28,17.963,23.963,22,19,22z M23,12v2h-8v-2H23z"/> </g>

</svg>